<svg width="231" height="155" viewBox="0 0 231 155" fill="none" xmlns="http://www.w3.org/2000/svg">
<rect x="57.1866" y="7.8878" width="173.813" height="20.2829" rx="10.1415" fill="#EAFFF3"/>
<circle cx="18.0293" cy="18.0293" r="18.0293" fill="#6FCF97"/>
<path d="M20.9258 6.05273V26H16.9883V10.5918L12.2578 12.0957V8.99219L20.502 6.05273H20.9258Z" fill="white"/>
<rect x="57.1866" y="66.8878" width="173.813" height="20.2829" rx="10.1415" fill="#FFE6E6"/>
<circle cx="18.0293" cy="77.0293" r="18.0293" fill="#EB5757"/>
<path d="M24.9453 81.9238V85H11.3281V82.375L17.7676 75.4707C18.4147 74.7507 18.9251 74.1172 19.2988 73.5703C19.6725 73.0143 19.9414 72.5176 20.1055 72.0801C20.2786 71.6335 20.3652 71.2096 20.3652 70.8086C20.3652 70.207 20.265 69.6921 20.0645 69.2637C19.8639 68.8262 19.5677 68.4889 19.1758 68.252C18.793 68.015 18.319 67.8965 17.7539 67.8965C17.1523 67.8965 16.6328 68.0423 16.1953 68.334C15.7669 68.6257 15.4388 69.0312 15.2109 69.5508C14.9922 70.0703 14.8828 70.6582 14.8828 71.3145H10.9316C10.9316 70.1296 11.2142 69.0449 11.7793 68.0605C12.3444 67.0671 13.1419 66.2786 14.1719 65.6953C15.2018 65.1029 16.4232 64.8066 17.8359 64.8066C19.2305 64.8066 20.4062 65.0345 21.3633 65.4902C22.3294 65.9368 23.0586 66.584 23.5508 67.4316C24.0521 68.2702 24.3027 69.2728 24.3027 70.4395C24.3027 71.0957 24.1979 71.7383 23.9883 72.3672C23.7786 72.987 23.4779 73.6068 23.0859 74.2266C22.7031 74.8372 22.2383 75.457 21.6914 76.0859C21.1445 76.7148 20.5384 77.3665 19.873 78.041L16.4141 81.9238H24.9453Z" fill="white"/>
<rect x="57.1866" y="125.888" width="173.813" height="20.2829" rx="10.1415" fill="#FFF2CB"/>
<circle cx="18.0293" cy="136.029" r="18.0293" fill="#F2C94C"/>
<path d="M15.3613 132.338H17.4668C18.1413 132.338 18.6973 132.224 19.1348 131.996C19.5723 131.759 19.8958 131.431 20.1055 131.012C20.3242 130.583 20.4336 130.087 20.4336 129.521C20.4336 129.011 20.3333 128.56 20.1328 128.168C19.9414 127.767 19.6452 127.457 19.2441 127.238C18.8431 127.01 18.3372 126.896 17.7266 126.896C17.2435 126.896 16.7969 126.992 16.3867 127.184C15.9766 127.375 15.6484 127.644 15.4023 127.99C15.1562 128.337 15.0332 128.756 15.0332 129.248H11.082C11.082 128.154 11.3737 127.202 11.957 126.391C12.5495 125.579 13.3424 124.946 14.3359 124.49C15.3294 124.035 16.4232 123.807 17.6172 123.807C18.9661 123.807 20.1465 124.025 21.1582 124.463C22.1699 124.891 22.9583 125.525 23.5234 126.363C24.0885 127.202 24.3711 128.241 24.3711 129.48C24.3711 130.109 24.2253 130.72 23.9336 131.312C23.6419 131.896 23.2227 132.424 22.6758 132.898C22.138 133.363 21.4818 133.737 20.707 134.02C19.9323 134.293 19.0618 134.43 18.0957 134.43H15.3613V132.338ZM15.3613 135.332V133.295H18.0957C19.1803 133.295 20.1328 133.418 20.9531 133.664C21.7734 133.91 22.4616 134.266 23.0176 134.73C23.5736 135.186 23.9928 135.729 24.2754 136.357C24.5579 136.977 24.6992 137.665 24.6992 138.422C24.6992 139.352 24.5215 140.181 24.166 140.91C23.8105 141.63 23.3092 142.241 22.6621 142.742C22.0241 143.243 21.2767 143.626 20.4199 143.891C19.5632 144.146 18.6289 144.273 17.6172 144.273C16.7786 144.273 15.9538 144.16 15.1426 143.932C14.3405 143.695 13.6113 143.344 12.9551 142.879C12.3079 142.405 11.7884 141.812 11.3965 141.102C11.0137 140.382 10.8223 139.529 10.8223 138.545H14.7734C14.7734 139.055 14.901 139.511 15.1562 139.912C15.4115 140.313 15.7624 140.628 16.209 140.855C16.6647 141.083 17.1706 141.197 17.7266 141.197C18.3555 141.197 18.8932 141.083 19.3398 140.855C19.7956 140.618 20.1419 140.29 20.3789 139.871C20.625 139.443 20.748 138.946 20.748 138.381C20.748 137.652 20.6159 137.068 20.3516 136.631C20.0872 136.184 19.709 135.856 19.2168 135.646C18.7246 135.437 18.1413 135.332 17.4668 135.332H15.3613Z" fill="white"/>
</svg>
