<svg id="_0337_Inbox_Empty" xmlns="http://www.w3.org/2000/svg" viewBox="0 0 500 500"><title>Empty</title><defs><style>.cls-1{fill:#fff;}.cls-2{fill:#f5d94a;}.cls-3{opacity:.22;}.cls-4{opacity:.44;}.cls-5{fill:#231f20;}</style></defs><g id="post-box"><path class="cls-5" d="M267.41,247.35c-.23,25.57-.45,51.14-.68,76.71-.23,25.57-.45,51.14-.68,76.71-.13,14.33-.25,28.65-.38,42.98-.02,1.92,4.75,3.32,4.77,1.07,.23-25.57,.45-51.14,.68-76.71,.23-25.57,.45-51.14,.68-76.71,.13-14.33,.25-28.65,.38-42.98,.02-1.92-4.75-3.32-4.77-1.07h0Z"></path><path class="cls-5" d="M330.66,247.73c-.23,25.57-.45,51.14-.68,76.71-.23,25.57-.45,51.14-.68,76.71-.13,14.33-.25,28.65-.38,42.98-.02,1.87,4.86,2.64,4.88,.32,.23-25.57,.45-51.14,.68-76.71s.45-51.14,.68-76.71c.13-14.33,.25-28.65,.38-42.98,.02-1.87-4.86-2.64-4.88-.32h0Z"></path><path class="cls-5" d="M301.34,233.63c.66,31.31,1.08,62.62,1.26,93.94,.19,31.32,.13,62.63-.15,93.95-.16,17.66-.4,35.31-.71,52.97-.02,1.21,1.81,1.12,2.53,.86,1.12-.41,2.04-1.33,2.07-2.55,.55-31.31,.87-62.63,.95-93.94,.08-31.32-.07-62.63-.46-93.95-.22-17.66-.52-35.31-.89-52.96-.03-1.21-1.77-1.13-2.53-.86-1.08,.4-2.09,1.34-2.07,2.55h0Z"></path><g class="cls-3"><path class="cls-5" d="M318.87,266.55c2.63,51.88,3.03,104.02,1.19,155.97-.15,4.24-.24,8.89,1.45,12.28,5.41-7.14,6.09-19.3,6.38-30.16,1.3-48.39,2.6-96.77,3.9-145.16"></path><g><path class="cls-5" d="M329.34,259.82c.05-.51-.37-.34-.45-.42,.07,.85,.56,.4,.45,.42Z"></path><polygon class="cls-5" points="330.07 268.25 329.9 268.1 330.29 269.35 330.07 268.25"></polygon><path class="cls-5" d="M329.85,276.11c.73-.72-.04-2.85,.25-4.24l.17-.23-.56-.65c.05,1.7,.37,3.93,.14,5.12Z"></path><path class="cls-5" d="M328.19,280.26c.28-.25,.21,.91,.11-.97-.03,.09-.05,.12-.08,.18,0,.17,0,.4-.04,.8Z"></path><path class="cls-5" d="M328.23,279.46c0-.83-.25,.54,0,0h0Z"></path><path class="cls-5" d="M328.29,283.29l-.22-1.1c-.17,.22-.23,1.19-.34,.83,.11,1.12,.27,.9,.56,.27Z"></path><path class="cls-5" d="M328.78,284.33l-.09-.57c-.07,.1-.1,.25,.09,.57Z"></path><path class="cls-5" d="M328.5,282.56l.19,1.2c.12-.16,.35-.17-.07-.55,.21,.1,.01-.14-.12-.65Z"></path><path class="cls-5" d="M328.63,281.89c.17-.61,.29-1.4,.51-.29-.04-2.09-.55-1.79-.51,.29Z"></path><path class="cls-5" d="M330.58,276.53l.23-.81-.22-.71c.11,.36-.24,1.57-.01,1.53Z"></path><path class="cls-5" d="M327.74,290.07c.15,.07,.41-.36,.61-.43l-.15-.81c-.11,.41-.23,1.19-.46,1.24Z"></path><path class="cls-5" d="M328.35,289.64l.23,1.21c.06-1.08-.06-1.28-.23-1.21Z"></path><polygon class="cls-5" points="329.57 284.55 329.07 282.55 329.57 284.93 329.57 284.55"></polygon><polygon class="cls-5" points="327.59 294.67 327.26 293.98 327.76 295.21 327.59 294.67"></polygon><path class="cls-5" d="M327.57,297.72c-.28-.51-.51,.68-.68,.14,.03,.83,.26,1.55,.47,2.19-.11-.68-.06-1.4,.21-2.33Z"></path><path class="cls-5" d="M327.66,301.13c-.06-.34-.18-.69-.3-1.08,.06,.36,.14,.72,.3,1.08Z"></path><path class="cls-5" d="M328.45,292.9c-.09,.09-.34,.26-.46,.94l.44-.46c0-.14,.01-.31,.02-.47Z"></path><path class="cls-5" d="M328.44,293.36v.02c-.04,.51-.06,.87-.07,1.02,0-.13,.03-.44,.07-1.04Z"></path><path class="cls-5" d="M328.45,292.78s0,.08,0,.12c.04-.04,.06-.07,0-.12Z"></path><path class="cls-5" d="M329.1,287.7c.22,.71,.44,2.2,.84,.78-.28-.52-.51,.3-.84-.78Z"></path><path class="cls-5" d="M329,292.2l.13-1.28c-.11,.02-.28,.25-.39-.11l.26,1.38Z"></path><polygon class="cls-5" points="329.12 292.84 329 292.2 328.95 292.68 329.12 292.84"></polygon><path class="cls-5" d="M328.12,298.95c.17,.56,.17,1.16,.18,1.85,.1-.73,.17-1.49,.19-2.2-.13-.11-.36-.43-.37,.36Z"></path><path class="cls-5" d="M328.31,296.23s.01,.09,.02,.12c.04-.07,.05-.13-.02-.12Z"></path><polygon class="cls-5" points="328.12 307.52 328.2 307.42 328.13 307.39 328.12 307.52"></polygon><path class="cls-5" d="M328.58,298.47c.1-.55,0-.88-.12-1.2,.03,.41,.05,.85,.04,1.32,.06,.05,.1,.06,.08-.12Z"></path><path class="cls-5" d="M327.81,303.01c.1-.28,.18-.61,.26-.95-.14,.28-.37,.84-.26,.95Z"></path><path class="cls-5" d="M328.21,296.54s-.01-.05-.02-.08c-.1,.18-.05,.16,.02,.08Z"></path><path class="cls-5" d="M328.21,296.54c.05,.28,.15,.51,.24,.74-.02-.34-.06-.65-.12-.92-.03,.07-.08,.13-.12,.18Z"></path><path class="cls-5" d="M330.81,309.63c-.39-.11-.72-1.56-.26-2.8-.26-1.24-1.59-.47-2.34,.58,.17,.04,.33,.05,.53,1.32,.23-.44,.58-2.79,.91-1.72,.16,1.68-.18,1.37-.41,2.18,.51-.68,.66,2.15,1.4,1.81l-.22-1.48c.11-.02,.28,.51,.39,.11Z"></path><path class="cls-5" d="M328.31,305.01l-.03-.52c-.09,.59-.25,1.01-.59,1.79,.17,.87,.31,1.05,.44,1.12l.12-2.56,.05,.18Z"></path><path class="cls-5" d="M328.33,302.15c.42,.42,.57,1.67,1.06,.92,.01-1.53-.33-1.08-.49-2,.04,2.47-.22-.71-.51,1.06-.06-.49-.07-.92-.08-1.33-.06,.44-.14,.87-.23,1.27,.01-.02,.02-.04,.03-.06h0s0,0,0,0c.06-.1,.09-.14,.06-.02,0,0,0,.04,0,.05,.06,.02,.11,.07,.16,.12-.11,.71-.11,.11-.16-.12-.02,0-.04-.03-.06-.03h0s.17,2.48,.17,2.48c.07-.52,.08-1.18,.06-2.34Z"></path><path class="cls-5" d="M330.83,289.82c-.04,.08-.07,.07-.1,.08,.05,.16,.08,.22,.1-.08Z"></path><path class="cls-5" d="M330.54,290.83c-.06-.18-.22-.34-.16-.92,.14-.5,.21,0,.35-.01-.1-.35-.28-1.24-.51-.14l.05,.18c-.17,.99-.75,2.25-.8,2.08,.4-.28,.68-.53,1.08-1.18Z"></path><path class="cls-5" d="M329.54,296.56l.16,2.06,.4-1.04-.23,.05c.12-1.17-.16-.92-.33-1.07Z"></path><polygon class="cls-5" points="327.9 307.75 327.45 307.47 328.06 308.67 327.9 307.75"></polygon><polygon class="cls-5" points="327.88 310.43 327.49 310.32 327.71 311.03 327.88 310.43"></polygon><path class="cls-5" d="M318.09,409.59l-.1-.61c.03,.29,.06,.47,.1,.61Z"></path><path class="cls-5" d="M317.93,413.95l.19,.11c-.1-.21-.18-.29-.19-.11Z"></path><path class="cls-5" d="M326.16,376.05c-.39,.87-.99,1.84-.54,1.74l.44-.26c-.06-.62,0-1.09,.1-1.48Z"></path><path class="cls-5" d="M326.73,421.01c.05-.08,.11-.16,.17-.23-.12-.23-.22-.45-.32-.65,.05,.27,.1,.57,.15,.89Z"></path><path class="cls-5" d="M328.39,421.94l-.49,1.13c.14-.24,.31-.61,.49-1.13Z"></path><path class="cls-5" d="M318.15,385.72l-.43-.71c-.02,1.1,.21,.62,.43,.71Z"></path><path class="cls-5" d="M327.31,337.79c-.19,.75-.28,1.36-.31,1.89,.27-.91,.67-1.64,.31-1.89Z"></path><path class="cls-5" d="M322.64,411.44c-.07-.37-.15-.53-.25-.53,.06,.38,.14,.6,.25,.53Z"></path><path class="cls-5" d="M326.94,341.88c.05-.13,.07-.26,.11-.4-.06-.56-.1-1.12-.06-1.79-.2,.67-.34,1.44-.06,2.19Z"></path><path class="cls-5" d="M317.75,299.19c.02-.06,.02-.14,.05-.2-.06-.02-.06,.07-.05,.2Z"></path><path class="cls-5" d="M321.12,273.8c.04,.25,.06,.65,.08,1.03,.02-.19,0-.5-.08-1.03Z"></path><path class="cls-5" d="M327.41,321.17c-.01-.57-.05-.09,0,0h0Z"></path><path class="cls-5" d="M329.19,318.46c.05,.12,.11,.22,.2,.23-.1-.05-.17-.13-.2-.23Z"></path><path class="cls-5" d="M329.48,347.59s0,.03,0,.05c.09-.17,.07-.14,0-.05Z"></path><path class="cls-5" d="M327.63,320.32c-.06,.21-.11,.46-.15,.72,.04-.12,.08-.34,.15-.72Z"></path><path class="cls-5" d="M327.42,320.43c.02-.2,.04-.35,.06-.49-.07-.07-.12-.01-.06,.49Z"></path><path class="cls-5" d="M327.41,321.96c0-.32,.03-.63,.07-.92-.03,.11-.06,.16-.07,.13,0,.17,0,.4,0,.79Z"></path><path class="cls-5" d="M319.83,345.55s.02-.08,.04-.12c-.18-.57-.15-.32-.04,.12Z"></path><path class="cls-5" d="M330.27,390.92s-.01-.04-.02-.07c0,.03-.01,.06-.02,.08l.04-.02Z"></path><path class="cls-5" d="M330.54,392.96c-.52-.88-.44-1.37-.31-2.03l-1.27,.64,1.57,1.39Z"></path><path class="cls-5" d="M318.23,399.12l-.42,1.42c-.6-1.74-.36-2.98-.93-1.65,1.35,.23,.02,5.55,1.36,5.78l-.31,.93c.02-.27-.06-.31-.04-.58-.7,1.81,.94,1.39,.69,3.74-.13,.82-.34,1.39-.48,.82l.29,1.84c-.04,.53-.27,.39-.23-.13l.02,2.8-.04-.02c.2,.4,.5,1.32,.63,1.76-.22,.7-.13-.36-.31-.18l.28,1.56c-.37,.62-.67-.67-.59-1.74-1.4,1.4,.3,1.29-.59,4.38l-.12-1.47c-.8,.92-.56,2.06-1.09,3.7,.26-.38,1.32-3.26,1.6-1.57-.12,.47-.19,1.09,.06,2.01-.48,0-.4,.89-.4,2.03l-.64-.09c.16,1.25,.49,1.16,.78,1.89-.05,1.4-.51,1.72-.91,2.09,.06,2.35,.68-1.65,1,1.08-.03,.97,.09,1.82,.36,2.69,.27,.87,.67,1.78,1.34,2.86,.42,1.44-.47-.08-.41,.49l.31,.3,3.32,3.27,.63-2.9,.2-.92c.18-.24,.25-.07,.29,.01,.4-.97-.42-.41,.2-1.85-.21-.36,.43-.9,1.06-1.7,.67-.77,1.3-1.81,1.25-2.84,.32-.39,.3,.34,.58,.29,.16-1.34,.25-1.9,.26-2.41,0-.51,.02-.97-.1-2.07,.26-.55,.55-1.1,.79-1.66-.72,1.19-.95-.57-1.17-2.05-.3,.41-.58,.75-.72,.99,.03-.76,.03-1.52,.03-2.28,.14-.25,.33,0,.54,.41-.03-.16-.06-.31-.09-.43,.35-.77,.66-.31,.92,.33-.17,.26-.34,.51-.51,.76,.31,.62,.61,1.22,1.01,1.17-.05-.16-.05-.46-.04-.78,.08,.17,.16,.28,.23,.22,.08-.07-.02-.33-.13-.73l.78-.42-.26-.17c.31-.99,.56-1.98,.83-2.98-.49-2.25-1.4-4.18-1.53-7.58,.48,.86,.84,.22,1.46,.29-.7,.9,.15,2.66-.13,4.43,.14-.92,.42-.7,.5-.45-.11-1.07-.26-2.14-.4-3.2,.5,.1,.41-.65,.66-1.47-1.02,.58-.57-2.38-.85-3.66,.34-.07,.68,.25,.54,1.81,.81-1.7-1.11-2.26-.42-3.92,0,.38-.06,.58,.11,.74-.28-.89,.02-3.05,.3-2.53v.38c.18-2.51,.21-7.66-.63-8.06,.11-.02,1.02,.36,1.18,.51l-2.74-4.57c.72,.42,2.5-1.06,2.86,1.04,.12-.6,.26-1.33,.04-2.6-.11,.41-1.08,.99-1.14,.43,.85-1.51,.46-1.05,1.21-2.92-.17,.61-1.3-.1-1.24-1.07,.17,.16,1.13-.05,1.24,.31l-1.06-2.44c.19,.61,.95,.13,1.28-.4-.23,.24,.08-2.08-.02-2.73l-.29,1.01c.24-2.72-1.51-2.73-1.38-5.43,.22,.33,1.41,.85,1.59-.52-.56-.64-2.69-2.86-3.07-5.26l.34-.45-.33-1.84c.84,1.16,2.57,4.42,3.23,6.18,.29-1.01,.4-.27,.41-1.8,.32-.53,.45,.84,.45,1.29l.29-3.54c-.68,.14-.6-2.73-1.16-2.61l.59,3.87c-.67,.14-1.85-2.28-1.66-4.79,.28-.63,1.18,.51,1.41,.46-.22-.33-.38-2.4-.21-2.63l.33,1.08c.29-1.39-.83-2.31-.14-3.98,.06-.58,.91-1.71,.52-1.82-.79,.93-3.17,1.05-3.73,.4,.06-.2,.82-3.03,1.21-3.68,.63-.94,1.39,1.47,1.93,.67-.18-.04-.39-.57-.46-.8,.17-.61,.56,.27,.51-1.06-.68-.24,.13-2.69-.56-.64-.16-1.3,.18-1.37,.19-2.9-.45,.47-1.46-1.41-1.62-2.71,.17,.08,.4-.2,.51-.34,.13-2.66,.48-4.07,.55-6.55,.17-.22,.4-1.41,.68-.9-.11-.36-.33-.69-.33-1.46,.63-1.46,.05,1.71,.78,.6-.39-.11-.49-1.99-.71-3.09-.62,.32-.18,2.51,.03,3.61-.84-.02-1.68-1.94-2-4.54-.15-2.06,.57-.88,.46-1.24,.25-3.86-1.38-3.33-.69-6.53,.57-1.26,1.07-.03,1.47-.3,.16,1.68-.41,2.57-.42,3.7l.29-1.39c.16,.54,.27,1.66,.1,2.27,.51-1.05,.27-6.53,.79-9.5-.17-.53-.33-1.45-.56-1.03l.05,.95c-.46,.86-.55-1.79-.79-.6-.27-1.27-.71-2.71-.42-4.48l.62-.32c-.18,.03-.4,1.16-.22,1.66-.25-.75,.9-2.71,.12-3.55l-.46,1.24c-.27-1.28-.88-2.87-.65-4.44-.62,.7,.06,.37-.68,1.47,.91-.95-.15,4.04,.82,2.5-.85,1.13-.4,1.98-1.14,3.47,.2-.04,.4-.52,.27,.8,.06,.06,.13,.2,.17,.3,0,.04-.01,.05-.02,.09,0-.03,.02-.05,.03-.07,.03,.06,.03,.06,0-.03,.1-.31,.21-.57,.33-.67,.45,.67,.38,2.78,.6,3.5-.12,.78-.22-.34-.45,.09l.33,1.08c-.45,.09-.8,2.07-1.02,.21l-.06,1.67c-.28,.98-.41,2.32-.25,3.16-.12,.78,.44,2,.11,1.31l.21,2.62-.11,.02c-.13,2.58,.6,5.34-.29,8.27,.09,.87,.2,1.77,.04,3.23l-.4,.27c.11,1.12-.48,3.34-.09,3.83-1.08,1.18-.37,5.41-.61,7.37l.51,.09c-.07,1.35,.04,2.65,.2,4.33l.45-.09c.33,1.46-.42,3.71-.43,6-.17-.16-.11-.74,0-1.15-1.09,2.71,.58,5.78-.22,8.24,.15,.62,.08,1.07-.05,1.5,0-.06,0-.11-.02-.15,0,.06-.01,.16-.01,.25-.08,.27-.18,.55-.26,.85,.12-.26,.21-.5,.26-.72,0,.48,.03,1.2,.13,1.91l-.49,.29c0,.06,0,.1,0,.16-.2,.69,.21,.56,.58,.2,.07,.36,.16,.69,.27,.94-.79,.54,.21,1.86-.64,2.61,.39,.49,.21,3.57,1.05,3.97-.11,.02-.17,.23-.17-.15-.12,.79-.24,1.57-.02,2.29l-.62,.32,.78,1.75c-.4,1.04-.63,1.47-1.07,.41,.66,2.53,.22,2.04,.88,4.2l-.39-.11c0,.76,.49,2,.15,2.45-.81,1.68-.3,8.47-1.19,12.77,1.2-.79-.61,1.99,.27,2.2-.29,.24-.48,.83-.68,.11,.14,2.22-.67,3.25-.06,4.82-.3,.22-.36-.51-.54-.3,.04,.18,.17,.72-.02,.92-.19,.2-.19-.34-.28-.69-.2,2.19,.6,2.53,1.37,2.8-.55,1.07-.56,1.63-.21,2.53-.33,.34-.71,.93-.56-.44-.09,.38-.38,1.52-.65,2.58-.23,1.07-.47,2.03-.16,2.16-.21,.19-.36,1.01-.35,1.23-.27,.82-.47,1.24-.65,1.67-.18,.43-.33,.86-.67,1.61l.29-.37c.21,.46,.1,.8-.13,1.18-.23,.38-.62,.76-.91,1.37l-.05-.07c-.73,.8-1.04,1.15-1.18,1.41l2.1,.2c-.23-.5-.54-.33-.64-2.29l-.42,.27c-.53,0-.57-.72-.47-1.62,.09-.9,.31-1.96,.08-2.85l-.24,.67c-.43-.99,1.32-2.79,1.47-3.76,.09-.21,.13,.35,.2,.64,.66-2.58-.63-.34-.72-2.3,.35-.35,.85,.5,.95-.83,.3-.66-.97-3.93-.26-5.74-.27,.4-.55,.79-.71-.15-.05-1.42,1.12-3.81,.32-5.12,.08-.18,.15-.24,.21-.25-.18-1.09-.26-3.54-.68-4.2,1.69-.96-.63-6.77,.89-6.71v-3.34s.15,.09,.15,.09c.15-2.13-.2-2.9-.55-3.65,.11-.49,.25-.13,.33-.09,.36-3.11,.3-3.43-.42-6.05l.5-.26c-.27-.71,.85-4.5,.3-7.57,.06,.03,.15,.1,.22,.34-.54-3.45,1.46-8.23-.34-9.51l-.43-2.27c-.16,2.94-.78-.44-1.09,.77-.1-1.16,.56-2.98,.65-1.56l-.09,.22c.94,.53,.36-3.65,.99-3.57-.04-5.78,.48-11.42,.48-16.84l-.73,.63,.03-1.89c.17-.5,.57-.67,.55,.68,.41-.71-.36-2.26-.52-2.3,.27-2.64,.86,1.02,.87,.21l-.07-1.1-.08,.25c-.31-.89-.63-.96-.61-2.59,.14-1.03,.45-.53,.47-.93,.05,0,.07-.13,.01-.62l.04-2.38-.57,.96c-.3-1.05,0-2.24-.64-1.13,1-1.62,.23-8.88,.53-9.88-.44-1.47-.47-2.93-.45-4.74-.11,.45-.75,.73-.71-.83,1.35,.54,.52-2.86,1.46-4.15-.61,1.14-.26-4.43-1.13-2.64,.07-1.3,.5-.09,.79-1.09-.61-3.08,.17-6.83-.14-10.65-.18-.05-.43,.59-.71-.22l.81-2.05c-.11-.75-1.04-.66-.47-2.06-.14,.2-.36,.5-.43,0,.61-7.52-1.26-15.27,0-22.95-.29,1.05-.36,.36-.41-.43-.06,.52-.43,0-.67,.12l.51-3.21c-.69-.55-.21-3.41-.86-3.71l.16,1c-.81-1.3-1.57,1.96-2.53,1.81,.92,1.46-1.06,4.01,.26,6.41-.17,.55-.33-.45-.54-.15,.44,.6,.55,1.35,.43,2.76l-.11-.15c.26,3.91-.06,5.61-.17,10.02l.46-.34c-.03,.95-.17,1.15-.27,1.6,.76,1.06-.06-2.66,.77-1.7-.92,1.29,.24,6.67-.83,7.56,.04,1.46,.53-.45,.57,1.01l-.28,.4,.39,.36c-.03,.96-.39,1.45-.64,1.49,.02-.23-.09-.66-.12-.9-.31,1.25,.23,3.48,.13,3.91l.14-1.4c.41,3.96,.14,8.82,.85,12.65l.22-.3c.49,2.92-.19,2.35,.07,5.57l-.06-.12c.24,.64,.37,1.5,.36,2.38-.28-.81-.48,1.54-.79,.48,.51,3.17,.39,1.57,1.25,3.65l-.36,.49c.35,.71,.52,.77,.65,2.37-.34-1.31-.55,1.04-.99-.44-.76,3.39,.9,5-.27,6.56,1.05,1.54,.53-2.93,.76-2.06,.32-.73,.79,1.27,.7,2.33-.01,1.08-1.29,1.85-1.25,4.56,0-.27-.08-.29-.07-.56-.25,1.02,.37,1.98-.04,3.23,.63,.69-.02,1.62,.77,1.81l-.21-2.49c.22,1.41,1.16,2.72,.72,5.05-.16-.18-.37-.87-.49-1.34-.23,.68,.16,1.31-.08,2.01-.8-.2-.18-3.02-.81-4.53-.32,.73,.6,2.85-.27,2.1,1.1,1.08-.12,2.67,.72,4.5l-.48-.12c.08,.29,.3,.89,.29,1.43l-.62-.97c.53,1.48-.44,2.87-.15,4.29-.03-2.98,.57-.67,.91-1.93,.65,3.68-1.24,2.12-1.01,6.24-.07-.56,.29-2.09,.51-1.22-.1,.78-.28,1.82-.53,2.3,.1,2.73,.49-.42,.78,.74-.58,.93,.23,1.34,.42,2.54h-.48c-.32,3.12,1,.84,.62,3.64l-.66-1.19,.16,1.46-.55-.3c.4,1.59,.29,2.09,.13,3.64,.34-.36,.87,.21,.88,1.59-.29,.94-.46-.53-.4,1.42-.3-.44-.68-.93-.23-1.78-.16-.09-.3-.44-.46-.53-.34,1.01-.09,2.54-.09,3.25,.02-.27,.05-.6,.12-.76l.64,2.84c-.19,.44-.33,.09-.47-.26,.05,.57,.26,.97,.3,1.82-.39-.22-.8-.17-.97-1.37l.4,2.7c-.17,.18-.48,1.38-.62,1.03-.25,1.49,.72,3.68,.38,5.66,.07,.1,.14,.31,.19,.73-.12,1.86-.63,3.5-.13,5.72l-.73,1.24c.12,1.73,.92-1.68,1.12,1.21,.18,2.04-.62,.75-.83,1.46,.33,1.02,1.01,2.8,.4,4.66-.12-.62,0-1.11-.04-1.69Zm-.29,21.34c-.09-.42-.37-1.25-.08-1.54,.54,.49,.26,.84,.08,1.54Zm10.15-2.46c.12,.33-.01,.8-.27,1.31,.01-.4,.08-.84,.27-1.31Zm-.46-90.61s.01,.03,.02,.04c-.21,.92-.13,.59-.02-.04Zm.26-1.91c-.06-.19-.13-.18-.2-.1,.12,.14,.12,.57,.07,1.06,.13-.13,.22-.38,.13-.95Zm-4.87,13.98l-.12,.37c-.15-.84-.02-.61,.12-.37Z"></path><path class="cls-5" d="M328.2,421.82c-.1,.1-.2,.12-.29,.13,.05,.18,.14,.2,.29-.13Z"></path><path class="cls-5" d="M318.23,385.85v-.06s-.05-.06-.08-.07l.08,.13Z"></path><path class="cls-5" d="M331.18,355.29c-.08,.39-.17,.61-.27,.75,.12,.02,.22-.15,.27-.75Z"></path><path class="cls-5" d="M327.35,315.3l.09,1.23c0-.59,.1-.8,.19-1.1-.11,.02-.28,.25-.28-.13Z"></path><path class="cls-5" d="M330.62,304.72c-.05-.18,0-.38-.05-.56l-.23,.04c0,.76,.16,1.3,.28,.52Z"></path><path class="cls-5" d="M328.98,314.21c.41-.09,.29-.86,.24-1.72,0,.05,0,.1,0,.15-.56-.27-.4,.65-.24,1.57Z"></path><path class="cls-5" d="M329.21,312.28c-.01-.27-.02-.54,.01-.8-.22-.11-.06,.32-.01,.8Z"></path><path class="cls-5" d="M327.69,323.04c.12-.41-.51-.27-.34-.5-.5-.47,.55,2.74,.34,.5Z"></path><polygon class="cls-5" points="330.33 313.55 329.82 313.84 330.21 314.33 330.33 313.55"></polygon><path class="cls-5" d="M329.78,320.33l.18-1.37c-.08,.02-.13-.16-.16-.37-.04,.85-.16,1.77-.01,1.74Z"></path><path class="cls-5" d="M329.8,318.58c.02-.44,.02-.86-.05-1.11,0,.24,0,.75,.05,1.11Z"></path><polygon class="cls-5" points="330.43 315.43 330.32 315.83 330.25 316.8 330.43 315.43"></polygon><path class="cls-5" d="M329.29,335.1l.1,1.5c.17,.16,.28-.25,.23-.81-.11-.36-.16-.92-.33-.7Z"></path><path class="cls-5" d="M330.78,330.6c-.11,.4-.23,.43-.4,.65l.62,.06-.22-.71Z"></path><path class="cls-5" d="M330.81,334.98c.17,.15,.44,2.19,.45,.29-.17-.16-.27-1.66-.45-.29Z"></path><polygon class="cls-5" points="329.42 357.56 329.42 357.18 328.4 357.21 329.42 357.56"></polygon><path class="cls-5" d="M331.32,377.55c.29-1.77-.62-.44-.27-2.04-.23-.42-.28,1.31-.48,.87,.22,1.08,.07,1.64,.75,1.16Z"></path><path class="cls-5" d="M330.57,376.39c-.04-.17-.08-.36-.14-.55,.06,.31,.1,.46,.14,.55Z"></path><polygon class="cls-5" points="321.47 269.58 321.62 268.43 321.32 269.18 321.47 269.58"></polygon><path class="cls-5" d="M320.61,267.42l.64-.3-.62-.66c.04,.26,.12,.76-.02,.96Z"></path><path class="cls-5" d="M316.52,423.62l.15,.09c.17-.18,.19-.45,.24-.99l-.39,.9Z"></path><polygon class="cls-5" points="317.49 408.13 317.47 408.4 318.07 407.92 317.49 408.13"></polygon><path class="cls-5" d="M317.06,395.13c-.04,.53,.08,1.16,.04,1.69-.08-1.16,.69-1.82-.04-1.69Z"></path></g></g><g><path class="cls-5" d="M125.95,276.42l.07,11.23c13.62-.4,27.27,.19,40.81,1.75,.25-4.36,.51-8.72,.76-13.08,.02-.35,.03-.74-.21-.99-.24-.26-.64-.27-.99-.26-13.47,.21-27.12,2.52-40.29-.3-.35-.07-.82-.09-.95,.25s.67,.32,.42,.07"></path><path class="cls-5" d="M123.52,276.7c.02,3.74,.05,7.49,.07,11.23,0,.83,.75,1.32,1.56,1.3,13.63-.39,27.26,.2,40.81,1.75,.98,.11,3.22-.56,3.29-1.85,.14-2.34,.27-4.68,.41-7.02l.2-3.39c.06-1.09,.33-2.35,.14-3.42-.4-2.34-3.59-1.79-5.29-1.74-2.33,.07-4.66,.19-6.99,.32-9.12,.53-18.37,1.35-27.45-.08-2.28-.36-5.64-1.56-7.25,.89-.61,.92-.13,1.78,.9,2.06,1.32,.36,2.7-.16,3.69-1.02,.26-.23,.58-.84,.42-1.21l-.05-.11c-.82-1.91-5.58-.43-4.81,1.36l.05,.11,.42-1.21-.07,.06,2.24-1.03,.88,.05,.8,.46-.1-.08,.21,.76v-.14c-.15,.27-.3,.54-.45,.8l.15-.19-1.58,.9c-.71,.06-.74,.13-.08,.2,.31,.06,.63,.12,.94,.18,.5,.09,1,.17,1.49,.25,1.1,.17,2.21,.32,3.32,.44,2.22,.23,4.45,.36,6.68,.4,4.62,.09,9.24-.13,13.85-.4,2.25-.13,4.5-.28,6.76-.4,1.13-.06,2.25-.12,3.38-.17,1.05-.04,2.2,.06,3.24-.1,.36,0,.32-.01-.11-.05l-.06,.97-.1,1.7-.2,3.39c-.14,2.34-.27,4.68-.41,7.02,1.1-.62,2.2-1.23,3.29-1.85-13.54-1.55-27.18-2.14-40.81-1.75l1.56,1.3c-.02-3.74-.05-7.49-.07-11.23-.01-2.27-4.87-1.33-4.85,.55h0Z"></path></g><g><path class="cls-5" d="M200.72,279.79l-.15,9.5c-.01,.77,.02,1.66,.62,2.15,.52,.43,1.26,.39,1.93,.34,13.36-1.05,26.84-.67,40.13,1.13-.6-3.48-.84-7.02-.7-10.55-14.25-1.9-28.5-3.79-42.75-5.69"></path><path class="cls-5" d="M198.57,278.92l-.12,7.5c-.04,2.26-.25,4.56,1.59,6.23,1.86,1.69,4.23,1.19,6.51,1.04,2.53-.17,5.06-.28,7.59-.34,9.89-.25,19.77,.31,29.57,1.63,1.14,.15,1.8-.59,1.61-1.71-.56-3.32-.76-6.67-.64-10.03,.05-1.34-1.34-2.77-2.63-2.94-14.25-1.9-28.5-3.79-42.75-5.69-1.09-.15-1.86,.61-1.61,1.71,.25,1.13,1.41,2.27,2.57,2.42,14.25,1.9,28.5,3.79,42.75,5.69-.88-.98-1.75-1.96-2.63-2.94-.13,3.71,.14,7.4,.75,11.06,.54-.57,1.08-1.14,1.61-1.71-8.76-1.18-17.6-1.76-26.43-1.73-4.41,.01-8.83,.18-13.23,.51-.37,.03-1-.06-1.32,.1-.58,.3,.79,1.5,.93,.95,.23-.88,.03-2.08,.04-3,.04-2.33,.07-4.66,.11-7,.02-1.21-1-2.35-2.08-2.78-.9-.36-2.19-.17-2.21,1.04h0Z"></path></g><g><path class="cls-2" d="M114.25,275.08c45.79,3.13,91.58,6.26,137.37,9.39,5.76,.39,11.55,.79,17.28,.1,4.95-.6,9.77-1.99,14.56-3.38,47.94-13.92,95.87-27.84,143.81-41.76-5.24-26.83-5.63-54.34-8.77-81.49-3.13-27.15-9.33-54.74-24.7-77.34-5.96-8.77-13.57-16.89-23.41-20.84-8.59-3.45-18.12-3.45-27.38-3.39-42.64,.31-85.51,.98-127.45,8.66-18.89,3.46-38.1,8.61-53.28,20.38-16.66,12.92-26.74,32.51-34.2,52.22-16.33,43.18-22.42,90.19-17.63,136.11"></path><path class="cls-2" d="M115.18,276.44c41.8,2.86,83.6,5.71,125.39,8.57,10.21,.7,20.78,2.19,30.98,.71,4.76-.69,9.37-2.07,13.98-3.4,5.06-1.47,10.11-2.94,15.17-4.4,20.02-5.81,40.05-11.63,60.07-17.44,22.65-6.58,45.31-13.16,67.96-19.73,.48-.14,1.06-.35,.94-.98-4.13-21.31-5.27-43.02-7.11-64.61-1.69-19.83-4.07-39.73-9.89-58.83-2.76-9.05-6.3-17.89-10.83-26.21-4.37-8.04-9.64-15.83-16.36-22.1-6.93-6.47-15.29-10.56-24.64-12.07-10.11-1.63-20.62-.94-30.82-.84-21.74,.22-43.5,.7-65.19,2.31-20.99,1.57-42.14,3.96-62.66,8.74-18.2,4.24-36.01,11.24-49.39,24.72-12.76,12.85-20.89,29.58-27.21,46.35-7.28,19.31-12.51,39.39-15.64,59.78-3.1,20.22-4.13,40.76-3.07,61.18,.26,5.08,.66,10.15,1.19,15.21,.17,1.6,5.02,2.58,4.82,.67-2.08-20.13-2.1-40.45-.05-60.58,2.04-20.04,6.1-39.88,12.12-59.11,5.47-17.47,12.19-35.19,22.84-50.23,5.13-7.25,11.26-13.83,18.45-19.08,7.48-5.45,15.99-9.37,24.73-12.33s18.07-4.98,27.28-6.63c10.43-1.88,20.93-3.32,31.47-4.45,21.13-2.25,42.38-3.14,63.61-3.57,10.58-.21,21.16-.32,31.75-.38,9.34-.05,19.24-.01,27.68,4.53,7.67,4.13,13.63,10.84,18.51,17.94,5.32,7.73,9.58,16.14,12.96,24.89,6.82,17.68,10.13,36.5,12.18,55.28,2.3,21.15,3.09,42.45,5.97,63.54,.69,5.09,1.51,10.15,2.49,15.19l.94-.98c-40.05,11.63-80.1,23.26-120.15,34.89-9.99,2.9-19.94,6.06-30.01,8.64-4.76,1.22-9.53,1.94-14.45,1.94-5.19,0-10.37-.46-15.55-.82l-62.38-4.26c-23.31-1.59-46.63-3.19-69.94-4.78-.86-.06-1.81,.46-1.32,1.38,.54,1,2.18,1.28,3.17,1.35h0Z"></path></g><g class="cls-4"><path class="cls-5" d="M121.74,267.83c-2.77-36.78-.09-73.95,7.91-109.65,3.67-16.39,8.64-32.84,18.17-46.07,9.53-13.23,24.4-22.85,39.93-21.64,13.91,1.09,26.48,10.66,34.92,22.84,8.44,12.18,13.3,26.79,17.31,41.36,10.76,39.08,16.35,79.77,16.52,120.41-43.62-2.92-87.24-5.83-130.85-8.75-1.65-.11-3.94,1.89-2.45,2.69"></path><path class="cls-5" d="M124.23,267.66c-2.16-28.86-1.01-57.96,3.51-86.55,2.16-13.69,4.85-27.45,9.03-40.68,3.81-12.06,9.16-24.04,17.72-33.51,7.4-8.2,17.82-15.19,29.18-15.63,11.34-.45,21.95,6.11,29.62,13.94,9.01,9.2,14.8,21,19.07,33.02,4.67,13.14,8.03,26.8,11,40.4,6.17,28.25,9.68,57.08,10.47,85.99,.1,3.53,.15,7.07,.17,10.6,1.03-.36,2.07-.71,3.1-1.07-18.82-1.26-37.65-2.52-56.47-3.77s-37.65-2.52-56.47-3.77c-5.31-.35-10.61-.71-15.92-1.06-2.24-.15-4.54-.29-6.52,.96-1.23,.77-2.14,2.09-.65,3.08,.88,.58,2.49,.36,3.43,.08,.6-.17,1.71-.68,.81-1.27-.37-.24,.14-.82,.33-.99,.04-.04,.47-.3,.47-.32,0,.04-1,.05-1.08,.11,.1-.09,1.05,.07,1.24,.08,2.24,.15,4.48,.3,6.72,.45,4.39,.29,8.79,.59,13.18,.88,8.87,.59,17.75,1.19,26.62,1.78,17.66,1.18,35.33,2.36,52.99,3.54,10.03,.67,20.07,1.34,30.1,2.01,.53,.04,3.1-.07,3.1-1.07-.14-29.73-3.14-59.43-8.96-88.58-2.83-14.17-6.21-28.3-10.56-42.08-3.97-12.57-9.13-25.18-17.54-35.49-7.52-9.21-17.73-16.6-29.61-18.7-12.13-2.15-24.58,1.74-34.3,9.04-21.43,16.09-28.18,44.67-33.02,69.59-5.63,29.02-7.77,58.71-6.42,88.23,.17,3.7,.39,7.4,.67,11.09,.09,1.26,5.08,.93,4.99-.34h0Z"></path></g><g><path class="cls-2" d="M259.37,296.33c-9.62,27.52-25.56,55.01-47,81.09-9.84,11.97-21.17,23.91-36.54,33.18-15.37,9.27-35.53,15.53-52.68,13.7-15.35-1.64-26.25-9.52-31.57-19.08-5.32-9.56-5.75-20.72-5.23-31.8,1.38-29.71,9.19-60.31,23.1-90.55,48.33,4.78,96.65,9.56,144.98,14.34,1.83,.18,5.12-1.17,3.7-1.85"></path><path class="cls-2" d="M257.1,295.32c-7.93,22.61-19.54,43.77-33.44,63.26-13.69,19.2-29.28,38.08-49.76,50.31-9.69,5.79-20.51,10.04-31.61,12.14-10.39,1.97-21.53,2.05-31.46-2-8.52-3.48-15.38-9.74-18.93-18.24-4.53-10.85-3.63-23.45-2.66-34.9,2.13-25.16,8.77-49.79,18.52-73.04,1.27-3.02,2.59-6.02,3.95-8.99l-2.37,1.23c21.02,2.08,42.04,4.16,63.06,6.24s41.87,4.14,62.81,6.21c5.88,.58,11.75,1.16,17.63,1.74,2.27,.22,4.43,.29,6.47-.89,.74-.42,1.33-1.04,1.49-1.9,.26-1.49-.78-2.5-1.95-3.19-1.03-.61-2.58-.08-2.98,1.04-.47,1.33,.51,2.42,1.55,3.04l-.3-.14-.83-.99-.13-.35,.06-1.14c.03-.1,.32-.37,.32-.43,0,.04-.27,.12-.14,.1-.07,0-.54,.22-.75,.28-.71,.22-1.36,.22-2.1,.14-2.48-.27-4.97-.49-7.45-.74-4.88-.48-9.76-.97-14.65-1.45-9.85-.97-19.69-1.95-29.54-2.92-19.69-1.95-39.39-3.9-59.08-5.84-11.09-1.1-22.18-2.19-33.27-3.29-1.07-.11-1.91,.23-2.37,1.23-10.98,23.93-18.76,49.4-21.91,75.59-.74,6.18-1.24,12.4-1.41,18.62-.17,6.14,.04,12.38,1.37,18.4,2.25,10.19,7.99,19.06,16.8,24.76,19.6,12.69,45.51,7.84,65.44-1.47,11-5.13,20.97-12.15,29.82-20.42,8.81-8.23,16.59-17.5,23.92-27.05,15.18-19.8,28.15-41.48,37.35-64.72,1.08-2.73,2.1-5.48,3.08-8.25,.9-2.57-3.56-4.76-4.53-2h0Z"></path></g><path class="cls-1" d="M124.18,268.1c-2.16-28.85-1.03-57.96,3.52-86.54,2.17-13.61,4.88-27.29,9.04-40.45,3.81-12.05,9.14-23.96,17.76-33.37,7.6-8.3,18.01-14.83,29.48-15.45,11.32-.61,21.69,5.31,29.5,13.07,9,8.95,14.7,20.68,18.94,32.5,4.7,13.11,8.07,26.76,11.05,40.35,6.2,28.23,9.68,57.08,10.47,85.97,.1,3.53,.15,7.07,.17,10.6l2.35-1.61c-18.91-1.26-37.83-2.53-56.74-3.79-18.91-1.26-37.83-2.53-56.74-3.79-5.23-.35-10.45-.7-15.68-1.05-2.17-.15-4.2-.25-5.92,1.31-1.71,1.55-1.15,3.43,.65,4.62,.91,.6,2.6,.66,3.32-.27,.79-1.03-.12-2.11-.98-2.67l.16,.07,.65,.9c-.25-.46,.06,.31-.04,.31,0,0,.51-.43,.54-.45,.53-.29,1.16-.08,1.81-.04,2.16,.14,4.31,.29,6.47,.43,4.4,.29,8.79,.59,13.19,.88,8.88,.59,17.75,1.19,26.63,1.78,17.67,1.18,35.34,2.36,53.01,3.54,9.96,.66,19.91,1.33,29.87,1.99,1.05,.07,2.35-.33,2.35-1.61-.14-29.73-3.14-59.43-8.96-88.58-2.84-14.19-6.21-28.34-10.54-42.15-3.98-12.68-9.17-25.41-17.58-35.84-7.66-9.5-17.99-17.2-30.13-19.61-11.94-2.38-24.14,1.68-33.65,8.93-21.45,16.35-28.27,45.01-33.11,70.13-5.6,29.03-7.74,58.72-6.4,88.25,.17,3.7,.39,7.4,.67,11.09,.17,2.32,5.08,3.14,4.89,.55h0Z"></path><path class="cls-1" d="M263.04,92.98c1.72,3.06,3.44,6.11,5.15,9.17,.31,.55,.75,1.08,1.19,1.52,.33,.32,.79,.74,1.24,.9,1.03,.36,.45-.98,.23-1.38-1.72-3.06-3.44-6.11-5.15-9.17-.31-.55-.75-1.08-1.19-1.52-.33-.32-.79-.74-1.24-.9-1.03-.36-.45,.98-.23,1.38h0Z"></path><path class="cls-1" d="M271.29,92.3c1.21,2.19,2.43,4.37,3.64,6.56,.14,.25,.86,.46,1.07,.53,.6,.2,1.25,.34,1.88,.42,.26,.03,2.15,.25,1.84-.31-1.21-2.19-2.43-4.37-3.64-6.56-.14-.25-.86-.46-1.07-.53-.6-.2-1.25-.34-1.88-.42-.26-.03-2.15-.25-1.84,.31h0Z"></path><path class="cls-1" d="M325.91,181.94c-2.1,4.9-3.6,10.01-4.53,15.26-.12,.65,2.35,.26,2.61,.2,.69-.16,2.12-.44,2.27-1.29,.9-5.09,2.41-10.07,4.44-14.82,.34-.79-1.59-.58-1.91-.53-.64,.1-1.27,.24-1.86,.5-.33,.14-.87,.35-1.02,.7h0Z"></path><path class="cls-1" d="M333.32,190.19c-1.17,3.06-2.35,6.11-3.52,9.17-.12,.3,.4,.67,.56,.79,.47,.32,1.1,.55,1.65,.68s1.19,.26,1.78,.18c.31-.04,.73-.09,.86-.43,1.17-3.06,2.35-6.11,3.52-9.17,.12-.3-.4-.67-.56-.79-.47-.32-1.1-.55-1.65-.68s-1.19-.26-1.78-.18c-.31,.04-.73,.09-.86,.43h0Z"></path><path class="cls-1" d="M387.97,207.74c1.63,3.38,3.27,6.76,4.9,10.14,.55,1.15,1.99,1.62,3.15,1.09,1.05-.48,2.06-1.78,1.47-2.99-1.63-3.38-3.27-6.76-4.9-10.14-.55-1.15-1.99-1.62-3.15-1.09-1.05,.48-2.06,1.78-1.47,2.99h0Z"></path><path class="cls-1" d="M396.48,203.76c1.64,3.93,3.28,7.86,4.93,11.8,.1,.24,.75,.07,.85,.04,.56-.13,1.15-.4,1.65-.67s1.04-.59,1.47-.99c.17-.15,.55-.47,.44-.73-1.64-3.93-3.28-7.86-4.93-11.8-.1-.24-.75-.07-.85-.04-.56,.13-1.15,.4-1.65,.67s-1.04,.59-1.47,.99c-.17,.15-.55,.47-.44,.73h0Z"></path><path class="cls-1" d="M92.55,402.73c9.65,9.73,24.61,13.26,37.96,12.44,14.9-.91,28.78-7.63,41.26-15.38,11.48-7.13,22.09-15.63,31.73-25.09,9.75-9.57,18.51-20.12,26.31-31.33,7.79-11.2,14.63-23.05,20.55-35.34,.75-1.55,1.48-3.12,2.2-4.68,.08-.18-4.52-1.76-4.92-.9-10.93,23.76-25.19,46.14-43.11,65.25-9,9.6-18.92,18.34-29.7,25.88-11.31,7.9-23.73,15.1-37.17,18.58-7.09,1.83-14.77,2.69-22.01,1.19-6.91-1.43-13.36-4.95-18.33-9.95-.62-.63-2.15-.72-2.97-.83-.22-.03-2.12-.14-1.81,.17h0Z"></path><path class="cls-5" d="M242.72,444.47c.44,.4,.86,.82,1.26,1.26,.19,.21,.37,.42,.55,.64,.11,.14,.22,.27,.33,.41,.14,.18,.14,.19,0,0,.68,.98,1.28,1.99,1.79,3.07-.16-.34,.13,.31,.18,.43,.1,.26,.2,.52,.29,.79,.19,.56,.36,1.13,.5,1.71,.07,.31,.14,.61,.2,.92-.04-.22,0-.01,.01,.09,.02,.14,.04,.28,.06,.42,.08,.62,.13,1.25,.14,1.88,1.49,.18,2.98,.36,4.47,.55,.04,.22,.01,.07,0-.06s-.03-.26-.03-.4c-.02-.3-.01-.6,0-.9,.02-.33-.04,.23,0-.09,.02-.13,.04-.26,.07-.39,.06-.29,.14-.58,.23-.87,.08-.25,.18-.5,.29-.74-.08,.18,.02-.03,.05-.09,.07-.12,.13-.23,.2-.34,.32-.51,.7-.97,1.14-1.39,.34-.33,.3-1.08,.18-1.47-.17-.56-.63-1.15-1.11-1.48-1-.68-2.18-.9-3.1-.01-2.21,2.15-2.88,5.28-2.31,8.23,.21,1.1,1.54,1.94,2.56,2.06s1.95-.41,1.92-1.52c-.16-5.53-2.65-11-6.72-14.75-.82-.75-2.15-1.52-3.23-.8-.97,.64-.69,2.15,.07,2.85h0Z"></path><path class="cls-5" d="M259.99,452.94c-1.53,3.71-2.09,7.65-1.55,11.63,.18,1.31,2.85,3.69,4.17,2.61,5.34-4.36,10.2-9.27,14.52-14.64-1.39-.87-2.78-1.74-4.17-2.61-.95,5.47-1.4,11.01-1.36,16.56,0,1.23,1.68,2.24,2.63,2.65,4.29,1.85,7.51-2.2,9.84-5.24,2.61-3.4,4.66-7.19,6.15-11.2-1.39-.87-2.78-1.74-4.17-2.61-.68,5.86-1.55,11.73-2.03,17.61-.2,2.5,.24,4.84,2.03,6.69,1.65,1.71,4.41,3.33,6.82,2.35,1.36-.55-2.17-3.83-3.6-3.25-.07,.03-.88,.18-.88,.18-.24-.06-.11,.03,.4,.28-.06-.06-.1-.14-.13-.22,.01-.32-.28-.78-.34-1.1-.08-.43-.09-.88-.09-1.32-.01-2,.36-4.03,.59-6.02,.5-4.29,1-8.58,1.49-12.87,.14-1.22-3.71-3.86-4.17-2.61-1.29,3.48-3,6.79-5.14,9.82-1.06,1.51-2.22,2.98-3.49,4.32-.88,.93-2.82,2.86-4.28,2.23,.88,.88,1.75,1.76,2.63,2.65-.04-5.56,.41-11.09,1.36-16.56,.21-1.23-3.23-3.77-4.17-2.61-4.32,5.37-9.18,10.27-14.52,14.64,1.39,.87,2.78,1.74,4.17,2.61-.52-3.76-.09-7.55,1.36-11.06,.63-1.53-3.59-4.07-4.08-2.89h0Z"></path><path class="cls-5" d="M237,462.9c5.47,3.18,10.37,7.2,14.58,11.93l4.59,.18c-7.67-4.46-16.28-7.16-25.09-8.12-.28-.03-2.51-.35-2.55,.22-.06,.95-.13,1.89-.19,2.84s4.91,1.41,4.96,.67c.06-.95,.13-1.89,.19-2.84l-2.55,.22c7.4,.81,14.46,3.25,20.88,6.99,.86,.5,2.1,.62,3.06,.65,.2,0,1.94,0,1.52-.47-4.33-4.86-9.41-8.99-15.04-12.26-.95-.55-2.29-.66-3.36-.66-.35,0-1.9,.12-.99,.64h0Z"></path><path class="cls-5" d="M317.47,447.78c-1.26,8.38-1.29,16.92-.14,25.32,.14,.99,1.2,1.49,2.1,1.44,1.12-.07,1.98-.79,2.5-1.73,4.63-8.42,9.85-17.64,19.05-21.66-1.12-.54-2.23-1.08-3.35-1.61-.12,6.6-1.87,13.09-5.31,18.75-1.08,1.78,.31,3.45,2.29,2.93,5.38-1.41,10.58-3.42,15.53-5.96l-2.82-.13c1.63,1.38-1.39,4.38-2.08,5.54-1.46,2.43-2.21,5.84,.54,7.72,2.17,1.48,5.23,.97,7.37-.32,2.6-1.55,3.75-4.43,5.99-6.33,.86-.73,1.26-2.16,.34-3.01s-2.48-.5-3.37,.25c-1.02,.87-1.89,1.9-2.69,2.97-.65,.86-1.27,1.85-2.14,2.53-.59,.46-2.53,1.11-2.63-.49-.06-.95,.73-1.95,1.25-2.67,.71-.99,1.44-1.95,1.94-3.08,.94-2.12,1.11-4.75-.81-6.37-.81-.68-1.94-.59-2.82-.13-4.56,2.34-9.34,4.14-14.3,5.44,.76,.98,1.53,1.96,2.29,2.93,3.83-6.31,6.05-13.47,6.18-20.87,.04-1.96-1.86-2.26-3.35-1.61-10.41,4.55-16.35,14.89-21.59,24.4,1.53-.1,3.07-.2,4.6-.3-1.11-8.06-1.05-16.19,.16-24.23,.44-2.94-4.39-2.21-4.76,.3h0Z"></path><path class="cls-5" d="M352.36,441.92c-1.91,2.73-2.82,6.05-2.61,9.37,.02,.28,.37,.57,.54,.76,.34,.37,.72,.72,1.12,1.03,.33,.26,.67,.51,1.03,.74,.22,.14,.77,.51,1.08,.49,3.26-.25,6.46-1.15,9.38-2.64,.36-.18-1.5-1.83-1.65-1.94-.46-.36-.94-.73-1.47-.99-.22-.11-.54-.31-.79-.19-2.83,1.44-5.91,2.3-9.08,2.55,1.26,1,2.51,2.01,3.77,3.01-.2-3.22,.74-6.42,2.59-9.05,.13-.19-.3-.66-.36-.73-.37-.45-.84-.86-1.29-1.22s-.94-.73-1.47-.99c-.14-.07-.65-.38-.79-.19h0Z"></path><path class="cls-5" d="M375.12,460.84c-4.24-1.01-9.1,1.07-11.33,4.81-.59,.98-.57,2.44,.65,2.97,2.54,1.09,5.31,1.59,8.08,1.4,1.2-.08,2.55-1.06,2.6-2.35,.04-1.26-.96-2.17-2.21-2.08-.57,.04-1.13,.04-1.69,.03s.53,.05-.01,0c-.13-.01-.26-.02-.38-.04-.28-.03-.56-.07-.84-.12-.56-.09-1.11-.22-1.65-.38-.07-.02-.5-.15-.17-.05s-.09-.03-.16-.06c-.29-.11-.58-.22-.86-.34,.22,.99,.44,1.98,.65,2.97,.2-.33,.42-.64,.66-.94,.18-.23-.42,.45-.14,.16,.07-.07,.14-.15,.21-.22,.13-.13,.26-.25,.4-.37,.08-.07,.15-.13,.23-.19,.34-.27-.14,.06-.2,.14,.12-.13,.35-.24,.5-.33s.31-.18,.47-.27c.11-.06,.76-.35,.29-.15s.14-.04,.26-.08c.19-.06,.38-.12,.58-.17,.13-.03,.73-.15,.28-.07s-.06,.01,.04,0,.2-.02,.3-.03c.18-.02,.36-.03,.54-.03,.1,0,.2,0,.3,0,.38,0-.05-.02-.18-.02,.39-.01,.82,.1,1.19,.19,1.2,.29,2.71-.57,3.07-1.75,.38-1.22-.24-2.31-1.48-2.61h0Z"></path><path class="cls-1" d="M190.67,81.2c13.01-.05,25.85,4.8,35.98,12.88,5.22,4.16,9.71,9.18,13.21,14.87,4.04,6.56,6.85,13.79,9.33,21.06,4.95,14.52,8.77,29.42,11.71,44.48,3,15.38,5.09,30.93,6.53,46.53,1.48,16.01,2.27,32.07,2.64,48.14,.05,1.99,.08,3.97,.12,5.96,0,.56,2.91,.1,2.9-.78-.27-16.26-.95-32.52-2.29-48.73-1.32-15.96-3.29-31.87-6.19-47.62-2.82-15.33-6.52-30.52-11.38-45.34-2.44-7.45-5.09-14.89-8.89-21.77-3.26-5.91-7.45-11.24-12.49-15.73-9.67-8.61-22.17-14.06-35.1-15.05-1.62-.12-3.24-.16-4.86-.16-.51,0-1.66,.22-1.93,.71-.3,.53,.26,.54,.7,.54h0Z"></path></g><g id="flag"><path class="cls-5" d="M370.21,135.49c-1.62-32.27-2.36-64.59-2.18-96.9,.01-1.82,.02-3.65,.04-5.47,.02-1.97-.14-4.04,.1-5.99,.06-.51,.05-.54,.33-1.06,.33-.61-.24,.28,.18-.25,.03-.04,.54-.49,.19-.21,.11-.09,.24-.18,.36-.24,.63-.34-.42,.2,.22-.11,.07-.03,.75-.21,.21-.1,.28-.06,.57-.08,.86-.08-.6,0,.08,.02,.19,.05,.7,.16-.51-.13,.19,.04,.08,.02,.69,.34,.22,.06,.18,.11,.37,.24,.53,.38-.36-.32,.13,.17,.16,.22-.23-.37,.15,.28,.15,.3,.13,.31,.22,.86,.28,1.41,.43,4.02,.52,8.08,.67,12.12,.59,16.08,.89,32.18,.88,48.28-.02,18.12-.42,36.24-1.19,54.35-.06,1.31,.83,2.36,2.14,2.56,1.1,.17,2.75-.5,2.8-1.81,.72-16.94,1.12-33.9,1.18-50.86,.06-17.07-.2-34.15-.81-51.21-.15-4.14-.24-8.3-.6-12.43-.25-2.89-.88-5.47-3.6-6.96-2.2-1.21-4.92-1.19-7.13-.02-2.37,1.24-3.36,3.56-3.41,6.13-.28,17.02-.15,34.06,.15,51.08,.3,16.92,.84,33.83,1.63,50.73,.1,2.15,.21,4.31,.31,6.46,.14,2.81,5.09,2.54,4.94-.44h0Z"></path><g><path class="cls-5" d="M371.05,26.38c12.88-2.84,26.1,1.82,38.46,6.42,12.39,4.6,24.78,9.21,37.17,13.81-21.49,15.16-45.53,26.69-70.8,33.96"></path><path class="cls-5" d="M370.99,27.97c9.55-2.04,19.35,.32,28.41,3.36,9.71,3.25,19.25,7.04,28.85,10.6,5.58,2.07,11.15,4.14,16.73,6.21l.53-2.6c-16.54,11.64-34.53,21.12-53.49,28.16-5.3,1.96-10.66,3.72-16.09,5.29-.93,.27-2.43,.98-2.43,2.15,0,1.13,1.52,1.25,2.32,1.01,20.06-5.8,39.35-14.15,57.27-24.88,5.04-3.01,9.95-6.22,14.75-9.6,.71-.5,2.02-2.04,.53-2.6-10.14-3.77-20.29-7.54-30.43-11.31-9.68-3.6-19.42-7.64-29.68-9.27-5.7-.91-11.51-.91-17.17,.3-.94,.2-2.43,1.03-2.43,2.15,0,1.18,1.52,1.19,2.32,1.01h0Z"></path></g><g><path class="cls-2" d="M370.99,124.65c-4.4-3.01-10.54,.48-13.41,4.97-3.96,6.19-4.33,15.06,.61,20.5,3.33,3.67,8.64,5.27,13.52,4.47,4.88-.8,9.27-3.85,12.09-7.93,2.74-3.97,4.05-9.15,2.54-13.73-1.5-4.59-6.21-8.18-11-7.56"></path><path class="cls-5" d="M371.78,123.17c-6.35-4.11-14,.66-17.13,6.52-3.29,6.16-3.39,14.07,.76,19.84,4.46,6.21,13.09,8.53,20.23,6.22,6.96-2.25,12.54-8.71,13.55-15.99,.58-4.16-.58-8.43-3.41-11.58-2.87-3.18-7.1-5.17-11.42-4.7-1.1,.12-1.62,1.11-1.11,2.09,.55,1.05,1.95,1.78,3.12,1.66,5.74-.62,8.7,5.55,8.21,10.47-.57,5.81-4.62,11.21-9.86,13.7-4.71,2.24-11.02,2.15-14.73-1.97-3.57-3.97-3.8-10.06-2.04-14.9,1.05-2.89,2.73-5.45,5.24-7.28,2.03-1.47,4.77-2.59,7.03-1.13,.82,.53,2.44,.68,2.99-.3,.61-1.09-.65-2.15-1.43-2.65h0Z"></path></g></g><g id="fly"><path class="cls-5" d="M186.1,204.95c-16.52,.04-32.99-3.22-48.27-9.49-7.63-3.13-14.96-7-21.84-11.54-6.6-4.36-13.32-9.28-18.27-15.52-4.47-5.63-7.05-12.68-4.9-19.79,.87-2.9,2.53-5.72,5.03-7.51,2.66-1.91,5.89-2.18,8.97-1.21,3.3,1.05,6.15,3.4,8.13,6.2,1.78,2.52,4.41,7.97,1.36,10.51-3,2.49-7.11-.98-9.09-3.13-2.73-2.98-5.17-6.28-7.45-9.6-9.33-13.56-15.58-29.23-18.18-45.49-.32-2.02-.58-4.04-.79-6.07-.11-1.05-3.02-.4-2.9,.78,1.85,17.81,8.06,35.07,17.89,50.03,2.46,3.75,5.14,7.38,8.07,10.77,2.57,2.97,5.76,5.53,9.89,5.23,3.84-.27,7.04-2.89,6.75-6.94-.27-3.79-2.61-7.53-5.34-10.06-5.38-4.99-13.62-6.26-19.65-1.61-5.4,4.16-7.45,11.8-5.96,18.3,1.89,8.25,8.34,14.61,14.72,19.72,7,5.61,14.59,10.46,22.61,14.47,15.94,7.97,33.55,12.65,51.36,13.56,2.25,.11,4.51,.16,6.77,.16,.61,0,1.62-.19,1.91-.82,.27-.59-.23-.95-.81-.94h0Z"></path><path class="cls-5" d="M71.71,71.15c-2.41-3.39-4.89-6.73-7.45-10-2.16-2.76-4.88-7.31-9-6.85-4.12,.46-4.97,5.34-4.12,8.67,.9,3.52,3.28,6.42,6.38,8.28,3.09,1.85,6.91,3.1,10.5,3.52,2.12,.25,3.99-.37,5.49-1.87,1.4-1.4,2.48-3.24,3.65-4.84,2.49-3.4,4.91-6.86,7.47-10.19,.3-.39,1.55-2.14,2.12-1.72,.08,.06-.08,.93-.19,1.27-.24,.75-.63,1.49-.99,2.19-3.15,6.12-9.26,10.59-16.07,11.62-1.54,.23-2.56,1.51-2.06,3.04,.47,1.44-.23,3.18-.39,4.63-.16,1.48-.02,2.92,.72,4.24,1.62,2.91,5.43,4.09,7.95,1.47,2.15-2.23,2.69-6.37,1.79-9.22-1-3.15-4.11-5.1-7.35-4.83-1.21,.1-2.37,1.21-2.22,2.47,.16,1.34,1.54,1.97,2.75,1.87s2.03,1.47,2.2,2.49c.16,.94,.01,1.91-.24,2.82-.11,.4-.34,.79-.44,1.19-.13,.52-.3,.17,.17,.32,.87,.28,.02-.31-.18-.77-.31-.7-.23-1.38-.11-2.13,.34-2.19,.73-4.12,.02-6.28-.69,1.01-1.37,2.03-2.06,3.04,6.4-.97,12.35-4.22,16.58-9.12,2.1-2.43,3.98-5.36,4.88-8.47,1.17-4.05-2.34-7.01-6.24-6.05-3.63,.89-5.68,4.9-7.73,7.69-2.42,3.31-4.74,6.74-7.3,9.95-.29,.36-.55,.79-1.02,.88-.66,.12-1.66-.27-2.3-.42-1.7-.4-3.38-.92-4.97-1.64-2.71-1.22-5.17-3.43-5.91-6.41-.21-.84-.27-1.72-.12-2.58,.02-.13,.3-.83,.25-.91,0,0-.52,.11-.53,.18,0-.06,1.53,1.3,1.63,1.42,.72,.86,1.41,1.74,2.1,2.62,2.88,3.64,5.66,7.35,8.34,11.13,1.61,2.27,5.81-.2,4.02-2.71h0Z"></path></g></svg>