<svg width="500" height="500" viewBox="0 0 500 500" fill="none" xmlns="http://www.w3.org/2000/svg">
<rect width="500" height="500" rx="100" fill="url(#paint0_linear_19_29)"/>
<g filter="url(#filter0_d_19_29)">
<rect x="100" y="100" width="300" height="258.182" rx="50" fill="#8BC4FF"/>
</g>
<g filter="url(#filter1_d_19_29)">
<rect x="100" y="121.818" width="300" height="259.091" rx="50" fill="#D4E9FF"/>
</g>
<g filter="url(#filter2_d_19_29)">
<rect x="100" y="141.818" width="300" height="258.182" rx="50" fill="white"/>
</g>
<rect x="117.958" y="184.545" width="208.099" height="23.6364" rx="11.8182" fill="#EBEBEB"/>
<rect x="336.62" y="180.909" width="34.8592" height="30" rx="10" fill="white" stroke="#EBEBEB" stroke-width="2"/>
<rect x="336.62" y="221.818" width="34.8592" height="30" rx="10" fill="white" stroke="#EBEBEB" stroke-width="2"/>
<rect x="336.62" y="260" width="34.8592" height="29.0909" rx="10" fill="white" stroke="#EBEBEB" stroke-width="2"/>
<rect x="336.62" y="297.273" width="34.8592" height="30" rx="10" fill="white" stroke="#EBEBEB" stroke-width="2"/>
<rect x="117.958" y="221.818" width="117.254" height="23.6364" rx="11.8182" fill="#EBEBEB"/>
<rect x="117.958" y="260" width="171.127" height="23.6364" rx="11.8182" fill="#EBEBEB"/>
<rect x="117.958" y="297.273" width="208.099" height="23.6364" rx="11.8182" fill="#EBEBEB"/>
<g filter="url(#filter3_b_19_29)">
<path d="M0 286V395C0 450.228 44.7715 495 100 495H400C455.228 495 500 450.228 500 395V379.294C500 324.066 455.229 279.294 400 279.294H308.908C279.535 279.294 251.647 266.38 232.647 243.98L213.422 221.314C194.422 198.914 166.534 186 137.161 186H100C44.7715 186 0 230.772 0 286Z" fill="url(#paint1_linear_19_29)" fill-opacity="0.3"/>
</g>
<defs>
<filter id="filter0_d_19_29" x="96" y="100" width="308" height="266.182" filterUnits="userSpaceOnUse" color-interpolation-filters="sRGB">
<feFlood flood-opacity="0" result="BackgroundImageFix"/>
<feColorMatrix in="SourceAlpha" type="matrix" values="0 0 0 0 0 0 0 0 0 0 0 0 0 0 0 0 0 0 127 0" result="hardAlpha"/>
<feOffset dy="4"/>
<feGaussianBlur stdDeviation="2"/>
<feComposite in2="hardAlpha" operator="out"/>
<feColorMatrix type="matrix" values="0 0 0 0 0 0 0 0 0 0 0 0 0 0 0 0 0 0 0.25 0"/>
<feBlend mode="normal" in2="BackgroundImageFix" result="effect1_dropShadow_19_29"/>
<feBlend mode="normal" in="SourceGraphic" in2="effect1_dropShadow_19_29" result="shape"/>
</filter>
<filter id="filter1_d_19_29" x="96" y="121.818" width="308" height="267.091" filterUnits="userSpaceOnUse" color-interpolation-filters="sRGB">
<feFlood flood-opacity="0" result="BackgroundImageFix"/>
<feColorMatrix in="SourceAlpha" type="matrix" values="0 0 0 0 0 0 0 0 0 0 0 0 0 0 0 0 0 0 127 0" result="hardAlpha"/>
<feOffset dy="4"/>
<feGaussianBlur stdDeviation="2"/>
<feComposite in2="hardAlpha" operator="out"/>
<feColorMatrix type="matrix" values="0 0 0 0 0 0 0 0 0 0 0 0 0 0 0 0 0 0 0.25 0"/>
<feBlend mode="normal" in2="BackgroundImageFix" result="effect1_dropShadow_19_29"/>
<feBlend mode="normal" in="SourceGraphic" in2="effect1_dropShadow_19_29" result="shape"/>
</filter>
<filter id="filter2_d_19_29" x="96" y="141.818" width="308" height="266.182" filterUnits="userSpaceOnUse" color-interpolation-filters="sRGB">
<feFlood flood-opacity="0" result="BackgroundImageFix"/>
<feColorMatrix in="SourceAlpha" type="matrix" values="0 0 0 0 0 0 0 0 0 0 0 0 0 0 0 0 0 0 127 0" result="hardAlpha"/>
<feOffset dy="4"/>
<feGaussianBlur stdDeviation="2"/>
<feComposite in2="hardAlpha" operator="out"/>
<feColorMatrix type="matrix" values="0 0 0 0 0 0 0 0 0 0 0 0 0 0 0 0 0 0 0.25 0"/>
<feBlend mode="normal" in2="BackgroundImageFix" result="effect1_dropShadow_19_29"/>
<feBlend mode="normal" in="SourceGraphic" in2="effect1_dropShadow_19_29" result="shape"/>
</filter>
<filter id="filter3_b_19_29" x="-27.7" y="158.3" width="555.4" height="364.4" filterUnits="userSpaceOnUse" color-interpolation-filters="sRGB">
<feFlood flood-opacity="0" result="BackgroundImageFix"/>
<feGaussianBlur in="BackgroundImageFix" stdDeviation="13.85"/>
<feComposite in2="SourceAlpha" operator="in" result="effect1_backgroundBlur_19_29"/>
<feBlend mode="normal" in="SourceGraphic" in2="effect1_backgroundBlur_19_29" result="shape"/>
</filter>
<linearGradient id="paint0_linear_19_29" x1="250" y1="0" x2="250" y2="500" gradientUnits="userSpaceOnUse">
<stop stop-color="#3B9BFF"/>
<stop offset="1" stop-color="#0066D0"/>
</linearGradient>
<linearGradient id="paint1_linear_19_29" x1="250" y1="186" x2="250" y2="495" gradientUnits="userSpaceOnUse">
<stop stop-color="white"/>
<stop offset="1" stop-color="#064586"/>
</linearGradient>
</defs>
</svg>
